mtllib hex-top.mtl
o hex-top.obj
v 1.000000 0.000000 0.000000
v 0.500000 0.000000 0.866025
v -0.500000 0.000000 0.866025
v -1.000000 0.000000 0.000000
v -0.500000 0.000000 -0.866025
v 0.500000 0.000000 -0.866025
v 0.000000 0.000000 0.000000
vn 0.000000 1.000000 0.000000
vn 0.000000 1.000000 0.000000
vn 0.000000 1.000000 0.000000
vn 0.000000 1.000000 0.000000
vn 0.000000 1.000000 0.000000
vn 0.000000 1.000000 0.000000
vn 0.000000 1.000000 0.000000
vt 0.747525 0.071275
vt 0.995049 0.500000
vt 0.500000 0.500000
vt 0.252475 0.071275
vt 0.004950 0.500000
vt 0.252475 0.928725
vt 0.747525 0.928725
g Generic
usemtl Default
f 2/1/2 1/2/1 7/3/7 
f 3/4/3 2/1/2 7/3/7 
f 4/5/4 3/4/3 7/3/7 
f 5/6/5 4/5/4 7/3/7 
f 6/7/6 5/6/5 7/3/7 
f 1/2/1 6/7/6 7/3/7 
