mtllib hex-sides.mtl
o hex-sides.obj
v 1.000000 0.000000 0.000000
v 1.000000 0.500000 0.000000
v 0.500000 0.000000 0.866025
v 0.500000 0.500000 0.866025
v -0.500000 0.000000 0.866025
v -0.500000 0.500000 0.866025
v -1.000000 0.000000 0.000000
v -1.000000 0.500000 0.000000
v -0.500000 0.000000 -0.866025
v -0.500000 0.500000 -0.866025
v 0.500000 0.000000 -0.866025
v 0.500000 0.500000 -0.866025
vn 0.981981 0.000000 -0.188982
vn 0.981981 0.000000 0.188982
vn 0.654654 0.000000 0.755929
vn 0.327327 0.000000 0.944911
vn -0.327327 0.000000 0.944911
vn -0.654654 0.000000 0.755929
vn -0.981981 0.000000 0.188982
vn -0.981981 0.000000 -0.188982
vn -0.654654 0.000000 -0.755929
vn -0.327327 0.000000 -0.944911
vn 0.327327 0.000000 -0.944911
vn 0.654654 0.000000 -0.755929
vt 0.747525 0.071275
vt 0.995049 0.500000
vt 0.747525 0.071275
vt 0.252475 0.071275
vt 0.252475 0.071275
vt 0.004950 0.500000
vt 0.004950 0.500000
vt 0.252475 0.928725
vt 0.252475 0.928725
vt 0.747525 0.928725
vt 0.747525 0.928725
vt 0.995049 0.500000
g Cylinder
usemtl Default
f 3/1/3 1/12/1 2/2/2 
f 3/1/3 2/2/2 4/3/4 
f 5/4/5 3/1/3 4/3/4 
f 5/4/5 4/3/4 6/5/6 
f 7/6/7 5/4/5 6/5/6 
f 7/6/7 6/5/6 8/7/8 
f 9/8/9 7/6/7 8/7/8 
f 9/8/9 8/7/8 10/9/10 
f 11/10/11 9/8/9 10/9/10 
f 11/10/11 10/9/10 12/11/12 
f 1/12/1 11/10/11 12/11/12 
f 1/12/1 12/11/12 2/2/2 
